<svg width="441" height="178" viewBox="0 0 441 178" fill="none" xmlns="http://www.w3.org/2000/svg">
<path d="M22.2 49.0999H13.4V86.4999H0.5V1.3999H13.4V35.4999H22.2V1.3999H35.1V86.5999H22.2V49.0999Z" fill="#262626"/>
<path d="M57.3 87.5001H54.8C44.5 87.5001 39 81.9001 39 71.4001V54.3001H51.8V69.2001C51.8 73.1001 53.1 75.2001 56 75.2001C59.1 75.2001 60.2 73.1001 60.2 67.9001V66.0001C60.2 59.9001 59.6 57.8001 54.9 51.7001L46.8 41.0001C41.3 33.9001 39.7 28.4001 39.7 19.9001V17.2001C39.7 5.9001 45.4 0.600098 55.6 0.600098H58C68.6 0.600098 72.8 5.3001 72.8 15.4001V29.4001H60.3V17.1001C60.3 14.2001 59.7 12.1001 56.6 12.1001C53.5 12.1001 52.8 14.0001 52.8 18.1001V19.7001C52.8 24.5001 53.7 27.1001 58.1 32.8001L66.3 43.4001C72.1 51.0001 74 55.3001 74 64.9001V67.6001C74 80.1001 68.6 87.5001 57.3 87.5001Z" fill="#262626"/>
<path d="M107.1 1.3999V13.7999H90.6V36.0999H103.5V48.9999H90.6V73.5999H107.8V86.4999H77.7V1.3999H107.1Z" fill="#262626"/>
<path d="M142.7 70.5003H133.3L131.6 86.5003H120L130.4 1.30029H145.7L156.8 86.5003H144.3L142.7 70.5003ZM141.3 57.8003L137.9 26.3003L134.6 57.8003H141.3Z" fill="#262626"/>
<path d="M171.9 86.5999H159V1.3999H180C188.6 1.3999 192.9 5.0999 192.9 14.5999V29.6999C192.9 36.7999 189.6 39.4999 187.3 40.5999C190.2 41.8999 192.9 44.1999 192.9 49.8999V79.7999C192.9 83.1999 193.6 84.7999 194.2 86.0999V86.6999H181.4C180.8 85.7999 180.1 84.2999 180.1 79.6999V53.8999C180.1 50.0999 179.4 48.4999 175.3 48.4999H172V86.5999H171.9ZM171.9 36.3999H175.3C178.9 36.3999 180 34.0999 180 30.2999V18.3999C180 14.6999 179.2 12.8999 175.3 12.8999H171.9V36.3999Z" fill="#262626"/>
<path d="M219 13.6999V86.4999H206.2V13.6999H195.3V1.3999H229.9V13.7999H219V13.6999Z" fill="#262626"/>
<path d="M264.5 70.5003H255.1L253.4 86.5003H241.8L252.2 1.30029H267.5L278.6 86.5003H266.1L264.5 70.5003ZM263.1 57.8003L259.7 26.3003L256.4 57.8003H263.1Z" fill="#262626"/>
<path d="M292.4 1.3999L303.5 47.0999V1.3999H315.3V86.5999H304.8L292.4 37.5999V86.5999H280.7V1.3999H292.4Z" fill="#262626"/>
<path d="M320.1 1.3999H340C351.1 1.3999 354.5 7.6999 354.5 17.7999V69.6999C354.5 80.0999 350.6 86.5999 340 86.5999H320.2V1.3999H320.1ZM333.1 74.1999H336.2C340.1 74.1999 341.2 72.0999 341.2 67.5999V19.5999C341.2 14.6999 339.9 12.9999 336.7 12.9999H333V74.1999H333.1Z" fill="#262626"/>
<path d="M0.5 91H20.3C31.4 91 34.8 97.3 34.8 107.4V159.3C34.8 169.7 30.9 176.2 20.3 176.2H0.5V91ZM13.4 163.9H16.5C20.4 163.9 21.5 161.8 21.5 157.3V109.3C21.5 104.4 20.2 102.7 17 102.7H13.3V163.9H13.4Z" fill="#262626"/>
<path d="M68.8999 91V103.4H52.3999V125.7H65.2999V138.6H52.3999V163.2H69.5999V176.1H39.3999V91H68.8999Z" fill="#262626"/>
<path d="M90.1999 177.1H87.6999C77.3999 177.1 71.8999 171.5 71.8999 161V143.9H84.6999V158.8C84.6999 162.7 85.9999 164.8 88.8999 164.8C91.9999 164.8 93.0999 162.7 93.0999 157.5V155.6C93.0999 149.5 92.4999 147.4 87.7999 141.3L79.5999 130.8C74.0999 123.7 72.4999 118.2 72.4999 109.7V107C72.4999 95.6999 78.1999 90.3999 88.3999 90.3999H90.7999C101.5 90.3999 105.6 95.0999 105.6 105.2V119.2H93.0999V106.9C93.0999 104 92.4999 101.9 89.3999 101.9C86.2999 101.9 85.5999 103.8 85.5999 107.9V109.5C85.5999 114.3 86.4999 116.9 90.8999 122.6L99.0999 133.2C104.9 140.8 106.8 145.1 106.8 154.7V157.4C106.9 169.7 101.5 177.1 90.1999 177.1Z" fill="#262626"/>
<path d="M123.5 176.2H110.6V91H123.5V176.2Z" fill="#262626"/>
<path d="M140.3 177.4C132.7 177.4 127.9 170.6 127.9 161.8V108.5C127.9 99.0002 131.6 90.2002 143.8 90.2002H146.3C160.2 90.2002 161.8 99.2002 161.8 109.3V118H149.2V108.4C149.2 104.6 148.3 102.6 145.1 102.6C142.4 102.6 141.1 104.7 141.1 108.4V158.2C141.1 162.2 142.7 164.3 145.3 164.3C148.6 164.3 150.1 162 150.1 158.8V137.5H144.3V124.4H162.4V176.2H155.1C155 175.7 154 171.5 152.9 167.8C152 170.7 147.6 177.3 141.1 177.3H140.3V177.4Z" fill="#262626"/>
<path d="M178.6 91L189.7 136.7V91H201.5V176.2H191L178.6 127.2V176.2H166.9V91H178.6Z" fill="#262626"/>
<path d="M235.3 177.1H232.8C222.5 177.1 217 171.5 217 161V143.9H229.8V158.8C229.8 162.7 231.1 164.8 234 164.8C237.1 164.8 238.2 162.7 238.2 157.5V155.6C238.2 149.5 237.6 147.4 232.9 141.3L224.7 130.8C219.2 123.7 217.6 118.2 217.6 109.7V107C217.6 95.6999 223.3 90.3999 233.5 90.3999H235.9C246.5 90.3999 250.7 95.0999 250.7 105.2V119.2H238.2V106.9C238.2 104 237.6 101.9 234.5 101.9C231.4 101.9 230.7 103.8 230.7 107.9V109.5C230.7 114.3 231.6 116.9 236 122.6L244.2 133.2C250 140.8 251.9 145.1 251.9 154.7V157.4C252 169.7 246.6 177.1 235.3 177.1Z" fill="#262626"/>
<path d="M276.8 158.9V139.1H289.5V158.8C289.5 168 286.5 177.2 274 177.2H271.1C258 177.2 255.2 167.8 255.2 159.2V107.2C255.2 98.5001 259 90.1001 270.7 90.1001H273.7C287.9 90.1001 289.5 99.5001 289.5 107.8V123H276.8V108C276.8 104.3 275.7 102.4 272.4 102.4C269.2 102.4 268.4 104.2 268.4 108V158.6C268.4 162.4 269.7 164.4 272.5 164.4C275.7 164.7 276.8 162.4 276.8 158.9Z" fill="#262626"/>
<path d="M315.4 138.8H306.6V176.2H293.7V91H306.6V125.1H315.4V91H328.3V176.2H315.4V138.8Z" fill="#262626"/>
<path d="M368.2 157.2C368.2 169.1 364.2 177.2 351.7 177.2H349.5C337.1 177.2 332.8 169.1 332.8 157.2V109.8C332.8 98.0002 337.3 90.2002 349.4 90.2002H351.6C364.2 90.2002 368.2 98.0002 368.2 109.7V157.2ZM355 109.1C355 104.6 353.5 102.6 350.5 102.6C347.2 102.6 345.9 104.8 345.9 109.1V158.1C345.9 161.8 346.9 164.6 350.6 164.6C354 164.6 355 161.7 355 158.1V109.1Z" fill="#262626"/>
<path d="M407.7 157.2C407.7 169.1 403.7 177.2 391.2 177.2H389C376.6 177.2 372.3 169.1 372.3 157.2V109.8C372.3 98.0002 376.8 90.2002 388.9 90.2002H391.1C403.7 90.2002 407.7 98.0002 407.7 109.7V157.2ZM394.5 109.1C394.5 104.6 393 102.6 390 102.6C386.7 102.6 385.4 104.8 385.4 109.1V158.1C385.4 161.8 386.4 164.6 390.1 164.6C393.5 164.6 394.5 161.7 394.5 158.1V109.1Z" fill="#262626"/>
<path d="M425.1 91V163H440.9V176.2H412.2V91H425.1Z" fill="#262626"/>
</svg>
